<?xml version="1.0" encoding="utf-8"?>
<svg viewBox="44.748 2.139 450.238 488.502" xmlns="http://www.w3.org/2000/svg" xmlns:xlink="http://www.w3.org/1999/xlink">
  <pattern width="33" height="22" patternUnits="userSpaceOnUse" id="New_Pattern" viewBox="4.8 -26.8 33 22" style="overflow:visible;">
    <g>
      <rect x="4.8" y="-26.8" class="st0" width="33" height="22" style="fill: none;"/>
      <circle class="st1" cx="37.8" cy="-4.8" r="4.8" style="fill: rgb(221, 221, 221);"/>
      <circle class="st1" cx="4.8" cy="-4.8" r="4.8" style="fill: rgb(221, 221, 221);"/>
      <circle class="st1" cx="37.8" cy="-26.8" r="4.8" style="fill: rgb(221, 221, 221);"/>
      <circle class="st1" cx="21.3" cy="-15.8" r="4.8" style="fill: rgb(221, 221, 221);"/>
      <circle class="st1" cx="4.8" cy="-26.8" r="4.8" style="fill: rgb(221, 221, 221);"/>
    </g>
  </pattern>
  <g id="Background" transform="matrix(0.543431, 0, 0, 0.56829, -14.975427, -22.2973)" style="">
    <path class="st2" d="M 794.5 543.5 C 792.3 537.9 787.3 490.5 793.6 446.1 C 784.7 441.4 771.5 433 768.9 426.2 C 769.6 412.2 802.9 376.2 817.3 381.7 L 817.4 381.8 C 822.3 376.2 827.9 371.8 834.6 369 L 835.6 353.6 L 833 351.5 L 829.7 348.2 L 827.4 343.7 L 826.9 340.7 L 826.9 335.4 L 825.6 333.8 L 821.9 330 L 821 328.2 L 824.1 322 L 831 308.9 L 833.8 303 C 833.8 303 807.9 282.2 811.5 269.5 C 812.4 266.4 815.1 263.1 815.1 263.1 C 814.9 264.9 811.6 275 831 284.4 C 831.9 284.7 834.4 285.5 837.7 286.5 L 837.7 43 L 109.9 43 L 112.413 759.485 C 183.217 760.871 837.7 760.3 837.7 760.3 L 837.7 551.9 C 817 552.9 797.6 551.3 794.5 543.5 Z" style="fill: rgb(243, 243, 243);"/>
    <rect x="507.2" y="332.4" class="st3" width="290.9" height="339.9" style="fill: rgb(255, 255, 255);"/>
    <g>
      <path class="st4" d="M812.6,277.5H486.9v15.2h336.3C819,288.1,814.6,282.6,812.6,277.5z" style="fill: rgb(225, 225, 225);"/>
      <path class="st4" d="M820.7,277.5c2.4,2.3,5.8,4.6,10.6,6.9c2.3,0.7,15.9,4.9,24.5,8.3h30.4v-15.2H820.7z" style="fill: rgb(225, 225, 225);"/>
    </g>
    <rect x="109.9" y="43" class="st4" width="727.7" height="54.6" style="fill: rgb(225, 225, 225);"/>
    <circle cx="148.3" cy="71" r="8.6"/>
    <circle cx="176" cy="71" r="8.6"/>
    <circle cx="203.7" cy="71" r="8.6"/>
    <rect x="145.5" y="137.4" class="st3" width="290.9" height="157.6" style="fill: rgb(255, 255, 255);"/>
    <rect x="145.5" y="332.4" class="st3" width="290.9" height="157.6" style="fill: rgb(255, 255, 255);"/>
    <rect x="486.9" y="148.8" class="st4" width="399.4" height="15.2" style="fill: rgb(225, 225, 225);"/>
    <rect x="486.9" y="191.7" class="st4" width="399.4" height="15.2" style="fill: rgb(225, 225, 225);"/>
    <rect x="486.9" y="234.6" class="st4" width="399.4" height="15.2" style="fill: rgb(225, 225, 225);"/>
  </g>
  <g id="Shadows" transform="matrix(0.543431, 0, 0, 0.56829, -14.975427, -22.2973)" style="">
    <pattern id="SVGID_1_" patternTransform="matrix(0.3 0 0 0.3 -5370.8037 -4697.1909)" xlink:href="#New_Pattern"/>
    <path class="st5" d="M732.7,796c0,5.7-38.2,106.6-94.1,106.6c45.8,0,141.5,0,141.5,0V796H732.7" style="fill: url(#SVGID_1_);"/>
    <pattern id="SVGID_3_" patternTransform="matrix(0.3 0 0 0.3 -5371.3267 -4690.8672)" xlink:href="#New_Pattern"/>
    <path class="st7" d="M777.1,408.2c0,6.7-6.1,78.1-21.2,84.3c11.4-6.1,28.9-15.3,34.7-22.6c0.4-4.6,2-23.7,2.8-26.4 c0.8-2.7,4-25,8-33.5c4-8.5,4.9-11.9,4.9-11.9l2.8-5.4l3.1-5l3.1-4.6l1.1-1.6l-1.4-0.3l-2.8-0.1l-3.6,0.8l-4.6,2.2l-5.5,3.3 l-3.9,2.8l-3.7,3.1l-3.9,3.8l-4,4.4l-5.6,6.5" style="fill: url(#SVGID_3_);"/>
    <pattern id="SVGID_4_" patternTransform="matrix(0.3 0 0 0.3 -5371.3267 -4690.8672)" xlink:href="#New_Pattern"/>
    <path class="st8" d="M881.7,461.1c0,2.7-17.5,89.3-46.6,89.3c32.9,3,49.2-1.3,49.2-1.3l5.8-5.2l2-5.8c0,0,1.6-16.2,1.6-17.7 c0.1-2.3,0.4-7.6,0.4-7.6l0.5-10l1.3-25l-5.2-8.4l-3.5-8.6L881.7,461.1z" style="fill: url(#SVGID_4_);"/>
  </g>
  <g id="Foreground" transform="matrix(0.543431, 0, 0, 0.56829, -14.975427, -22.2973)" style="">
    <path class="st10" d="M893.8,389.4c-6.8-9-18.1-17.2-33.8-20.5" style="fill: none; stroke: rgb(0, 0, 0); stroke-miterlimit: 10;"/>
    <path class="st10" d="M891.6,540.8c2-8.5,2.7-33,4.4-62.9" style="fill: none; stroke: rgb(0, 0, 0); stroke-miterlimit: 10;"/>
    <path class="st10" d="M834.7,369.1c-56.6,23.6-44.1,164.5-40.2,174.4c6.6,16.8,88.3,4.8,95.6,0.3" style="fill: none; stroke: rgb(0, 0, 0); stroke-miterlimit: 10;"/>
    <path class="st11" d="M801.7,449.6" style="fill: none; stroke: rgb(0, 0, 0); stroke-miterlimit: 10; stroke-width: 0.95px;"/>
    <path class="st12" d="M870.1,340.1c-6.5,8-11,32.6-11.1,35.4c-1,1.7-5.9,2.2-10.8,2.3" style="fill: none; stroke: rgb(0, 0, 0); stroke-linecap: round; stroke-miterlimit: 10; stroke-width: 1.0746px;"/>
    <path class="st9" d="M771.3,430c-9.2,8-27.3,28.4-28.8,31c-4.6-2.2-52.5-27.4-56.1-29c-3.6-1.6-11.2-14.3-13.8-14.3 c-1.5,0-2.9,2.9-2.9,4.9c0,3.4,1.6,6,2.6,7.1c-3.4-0.5-33.4-2.8-33.4-0.8c0,5.2,33.6,12.1,36.2,13.5c2.6,1.4,57.3,52,76.3,52 c7.4,0,39.8-22.2,39.8-24.6" style="fill: none; stroke: rgb(0, 0, 0); stroke-linecap: round; stroke-linejoin: round; stroke-miterlimit: 10;"/>
    <polyline class="st9" points="885.5,877.4 885.5,894 843.3,894 870.2,877.4 &#9;" style="fill: none; stroke: rgb(0, 0, 0); stroke-linecap: round; stroke-linejoin: round; stroke-miterlimit: 10;"/>
    <line class="st9" x1="885.5" y1="877.4" x2="885.5" y2="854.2" style="fill: none; stroke: rgb(0, 0, 0); stroke-linecap: round; stroke-linejoin: round; stroke-miterlimit: 10;"/>
    <line class="st9" x1="870.4" y1="877.4" x2="870.4" y2="854.2" style="fill: none; stroke: rgb(0, 0, 0); stroke-linecap: round; stroke-linejoin: round; stroke-miterlimit: 10;"/>
    <polyline class="st9" points="704.5,779.4 704.5,796 662.4,796 689.2,779.4 &#9;" style="fill: none; stroke: rgb(0, 0, 0); stroke-linecap: round; stroke-linejoin: round; stroke-miterlimit: 10;"/>
    <line class="st9" x1="704.5" y1="785.4" x2="704.5" y2="762.2" style="fill: none; stroke: rgb(0, 0, 0); stroke-linecap: round; stroke-linejoin: round; stroke-miterlimit: 10;"/>
    <line class="st9" x1="689.5" y1="779.4" x2="689.5" y2="760.3" style="fill: none; stroke: rgb(0, 0, 0); stroke-linecap: round; stroke-linejoin: round; stroke-miterlimit: 10;"/>
    <rect x="598" y="796" class="st9" width="182.1" height="106.6" style="fill: none; stroke: rgb(0, 0, 0); stroke-linecap: round; stroke-linejoin: round; stroke-miterlimit: 10;"/>
    <path class="st13" d="M887.4,461.5c0.9,5.5,21.9,38.6,24.4,41.5c-5.3,4.6-34.8,69.1-37.1,73.3c0,2.4,7.2,10.3,9.8,12.9 c4.4,0,53.9-63.7,53.9-70.9s0.8-54.2-12.5-74.5" style="fill: none; stroke: rgb(0, 0, 0); stroke-linecap: round; stroke-miterlimit: 10;"/>
    <path class="st13" d="M881.5,460.5c7.2,3.1,42.2-7.4,45-18c3-15.7-20.6-60.9-41.6-52.4" style="fill: none; stroke: rgb(0, 0, 0); stroke-linecap: round; stroke-miterlimit: 10;"/>
    <path d="M884.4,589.3c-2.6-2.6-9.8-10.5-9.8-12.9c1.1-1.9,7.9-16.7,15.5-32.4c-18.8,5.1-65.6,8.9-82.7,5c-4.6-1-9.2-3.2-12.9-5.4 c-4.5,2.9-70.7,49.2-101.3,94.6c-1.6,3.6-4,122.3-4,122.3l24.3,2.1l21.7-101.1c3.5,0,50.8-18.1,84.7-39.7l40.2,232.6h26.1 l5.7-271.8C888.1,586.6,885.3,589.3,884.4,589.3z"/>
    <path class="st12" d="M815.1,266.3c0,27,68.2,20,68.2,54.6c0,15-8.2,18.6-13,18.6" style="fill: none; stroke: rgb(0, 0, 0); stroke-linecap: round; stroke-miterlimit: 10; stroke-width: 1.0746px;"/>
    <path class="st12" d="M811.5,274.5c0,3,3.8,11.4,14.8,21.8" style="fill: none; stroke: rgb(0, 0, 0); stroke-linecap: round; stroke-miterlimit: 10; stroke-width: 1.0746px;"/>
    <path class="st12" d="M833.5,302.9c-1.2,4-12.2,23.4-12.2,25.8s5.5,5.5,5.5,7.2s-2.2,10.6,8.8,17.9c-0.5,3.3-0.9,15.3-0.9,15.3" style="fill: none; stroke: rgb(0, 0, 0); stroke-linecap: round; stroke-miterlimit: 10; stroke-width: 1.0746px;"/>
    <circle cx="837.2" cy="318.1" r="1.5"/>
    <path class="st12" d="M833.5,340.8c-2,0.9-4.1,1.5-6.3,1.8" style="fill: none; stroke: rgb(0, 0, 0); stroke-linecap: round; stroke-miterlimit: 10; stroke-width: 1.0746px;"/>
    <path class="st11" d="M817.4,381.7c-14.4-5.5-47.8,30.5-48.4,44.5c2.6,6.9,16.2,15.5,25.1,20.2" style="fill: none; stroke: rgb(0, 0, 0); stroke-miterlimit: 10; stroke-width: 0.95px;"/>
  </g>
  <g transform="matrix(0.426318, 0, 0, 0.409398, 76.919197, 67.273209)" style="">
    <path d="M24,46C11.9,46,2,36.1,2,24S11.9,2,24,2s22,9.9,22,22S36.1,46,24,46z M24,4C13,4,4,13,4,24c0,11,9,20,20,20   c11,0,20-9,20-20C44,13,35,4,24,4z" style="fill: rgba(0, 0, 0, 0.39);"/>
  </g>
  <g transform="matrix(0.426318, 0, 0, 0.409398, 76.919197, 67.273209)" style="">
    <polygon points="20,34.1 11.3,25.4 12.7,23.9 20,31.2 35.3,15.9 36.7,17.4  " style="fill: rgba(0, 0, 0, 0.39);"/>
  </g>
  <g transform="matrix(0.426318, 0, 0, 0.409398, 77.276367, 90.571213)" style="">
    <path d="M24,46C11.9,46,2,36.1,2,24S11.9,2,24,2s22,9.9,22,22S36.1,46,24,46z M24,4C13,4,4,13,4,24c0,11,9,20,20,20   c11,0,20-9,20-20C44,13,35,4,24,4z" style="fill: rgba(0, 0, 0, 0.39);"/>
  </g>
  <g transform="matrix(0.426318, 0, 0, 0.409398, 77.276367, 90.571213)" style="">
    <polygon points="20,34.1 11.3,25.4 12.7,23.9 20,31.2 35.3,15.9 36.7,17.4  " style="fill: rgba(0, 0, 0, 0.39);"/>
  </g>
  <g transform="matrix(0.426318, 0, 0, 0.409398, 77.46035, 114.717667)" style="">
    <path d="M24,46C11.9,46,2,36.1,2,24S11.9,2,24,2s22,9.9,22,22S36.1,46,24,46z M24,4C13,4,4,13,4,24c0,11,9,20,20,20   c11,0,20-9,20-20C44,13,35,4,24,4z" style="fill: rgba(0, 0, 0, 0.39);"/>
  </g>
  <g transform="matrix(0.426318, 0, 0, 0.409398, 77.46035, 114.717667)" style="">
    <polygon points="20,34.1 11.3,25.4 12.7,23.9 20,31.2 35.3,15.9 36.7,17.4  " style="fill: rgba(0, 0, 0, 0.39);"/>
  </g>
</svg>