<?xml version="1.0" ?><svg viewBox="0 0 512 512" xmlns="http://www.w3.org/2000/svg"><title/><g id="Balloons"><path d="M156.37,349.45a2,2,0,0,0-2,2v84.4946a2,2,0,0,0,4,0V351.45A2,2,0,0,0,156.37,349.45Z"/><path d="M358.75,349.45a2,2,0,0,0-2,2v84.4946a2,2,0,0,0,4,0V351.45A2,2,0,0,0,358.75,349.45Z"/><path d="M256,289.5571a2,2,0,0,0-2,2V435.9443a2,2,0,0,0,4,0V291.5571A2,2,0,0,0,256,289.5571Z"/><path d="M419.8657,205.5288a57.8527,57.8527,0,0,1-1.64,13.4463,2,2,0,1,0,3.8867.9473,61.871,61.871,0,0,0,1.7529-14.377,2,2,0,0,0-1.9917-2.0083h-.0083A2,2,0,0,0,419.8657,205.5288Z"/><path d="M417.9443,178.2773C407.189,154.2656,385.06,139.93,358.75,139.93a2,2,0,0,0,0,4c24.6875,0,45.4517,13.4511,55.5439,35.9819a65.7459,65.7459,0,0,1,3.3682,9.335,2,2,0,1,0,3.8555-1.0655A69.7286,69.7286,0,0,0,417.9443,178.2773Z"/><path d="M319.124,143.5371h-.0083a2,2,0,0,0-2,1.9917,57.8819,57.8819,0,0,1-1.64,13.4468,2,2,0,1,0,3.8867.9463,61.8884,61.8884,0,0,0,1.7529-14.3765A2,2,0,0,0,319.124,143.5371Z"/><path d="M316.8389,130.7148a2.0015,2.0015,0,0,0,1.9287-2.5332,69.7286,69.7286,0,0,0-3.5733-9.9043C304.439,94.2656,282.31,79.93,256,79.93a2,2,0,0,0,0,4c24.6875,0,45.4517,13.4511,55.5439,35.9819a65.7459,65.7459,0,0,1,3.3682,9.335A2.0005,2.0005,0,0,0,316.8389,130.7148Z"/><circle cx="267.8569" cy="131.9144" r="5.9139" transform="translate(-14.8241 228.0403) rotate(-45)"/><circle cx="244.1431" cy="131.9144" r="5.9139" transform="translate(-23.7766 59.6212) rotate(-13.2825)"/><path d="M284.9458,144.3525a2.0015,2.0015,0,0,0-2.7529.65,30.7819,30.7819,0,0,1-52.3858,0,2,2,0,1,0-3.4023,2.1035,34.7819,34.7819,0,0,0,59.19,0A2,2,0,0,0,284.9458,144.3525Z"/><path d="M436.1968,170.1011A83.8915,83.8915,0,0,0,358.75,119.93a87.868,87.868,0,0,0-20.8575,2.4873,87.8185,87.8185,0,0,0-4.4457-12.3164,84.8612,84.8612,0,0,0-154.8936,0,87.9236,87.9236,0,0,0-4.2637,11.651,88.381,88.381,0,0,0-17.92-1.8219,84.8609,84.8609,0,0,0-63.3183,141.36l54.73,61.3355-12.9624,22.4526h43.103L164.959,322.626l54.73-61.3355a90.4551,90.4551,0,0,0,6.2016-7.7656,2,2,0,1,0-3.26-2.3184,86.4893,86.4893,0,0,1-5.9263,7.4209l-56.6553,63.4937,10.9449,18.9575H141.7461l10.9448-18.9575L96.0356,258.6274A80.8613,80.8613,0,0,1,156.37,123.93a84.2738,84.2738,0,0,1,16.91,1.7,83.7218,83.7218,0,0,0,19.4013,75.66l54.73,61.3355-12.9629,22.4526h43.1036L264.5889,262.626l54.7295-61.3355a83.7221,83.7221,0,0,0,19.5543-74.9913A83.7555,83.7555,0,0,1,358.75,123.93a80.8613,80.8613,0,0,1,60.3345,134.6972l-56.6558,63.4937,10.9453,18.9575H344.126l10.9453-18.9575L298.416,258.6274a86.1015,86.1015,0,0,1-6.498-8.2348,2,2,0,0,0-3.2871,2.2793,90.0476,90.0476,0,0,0,6.8007,8.6186l54.7295,61.3355-12.9629,22.4526h43.104L367.3389,322.626l54.73-61.3355A83.891,83.891,0,0,0,436.1968,170.1011ZM316.334,198.6274l-56.6553,63.4937,10.9453,18.9575H241.376l10.9453-18.9575L195.666,198.6274a80.8612,80.8612,0,1,1,120.668,0Z"/></g></svg>