<?xml version="1.0" ?><svg viewBox="0 0 512 512" xmlns="http://www.w3.org/2000/svg"><title/><g id="Board"><path d="M421.2021,321.5959h-8.1572V121.6873l-.0024-.024a2.0654,2.0654,0,0,0-.0244-.2436c-.0069-.05-.0081-.1016-.0183-.15-.0135-.0626-.0379-.1231-.0574-.1848-.02-.0637-.0362-.1294-.0625-.19-.0195-.0449-.0479-.0866-.0708-.13a2.0509,2.0509,0,0,0-.1223-.2149c-.0047-.0068-.0071-.0143-.012-.0209-.0273-.0386-.062-.0686-.0915-.1045a2.0241,2.0241,0,0,0-.1519-.1734c-.0447-.0432-.094-.0788-.1421-.1173a2.0016,2.0016,0,0,0-.1621-.1235c-.0525-.0338-.1082-.06-.1631-.0885a1.9364,1.9364,0,0,0-.1824-.0894c-.0586-.0232-.1189-.038-.1792-.0556a1.9332,1.9332,0,0,0-.1921-.0518,1.9813,1.9813,0,0,0-.2234-.0224c-.0478-.0035-.0932-.0144-.1421-.0144h-310.09c-.04,0-.0779.01-.1177.0118a2.0252,2.0252,0,0,0-.2605.0262c-.0642.0125-.1243.0343-.1863.0527s-.1244.033-.1844.0572a1.9455,1.9455,0,0,0-.18.0909c-.0553.0292-.1117.0549-.1643.0893a1.9765,1.9765,0,0,0-.1617.1263c-.0475.0385-.097.0733-.1411.1165a2.01,2.01,0,0,0-.165.1927c-.0264.0335-.0578.0611-.0825.0967l-.0058.0106a1.988,1.988,0,0,0-.1619.2924c-.0084.0183-.0212.0353-.0291.0537a2.0205,2.0205,0,0,0-.0742.2355c-.0134.047-.0337.0926-.0434.14-.0071.0342-.0063.0709-.0115.1056a1.9907,1.9907,0,0,0-.0292.2883l-.0013.0135V321.5959H90.7979a11.2123,11.2123,0,0,0-11.1993,11.1993V345.43a2,2,0,0,0,2,2H197.0925l-43.0018,56.7813H137.8643A15.8766,15.8766,0,0,0,122.0059,420.07a2,2,0,0,0,2,2h39.78c.0144,0,.028-.0047.0424-.005a2.0222,2.0222,0,0,0,.4156-.0492c.0579-.0137.1106-.04.1668-.059a1.9914,1.9914,0,0,0,.2673-.0985c.0562-.0281.105-.0681.1582-.1013a1.9636,1.9636,0,0,0,.23-.1527,2.0258,2.0258,0,0,0,.1516-.1581,1.9359,1.9359,0,0,0,.1658-.1726L194.04,383.2346h42.7667a2,2,0,0,0,0-4H197.0532l7.606-10.0962h32.1474a2,2,0,0,0,0-4h-29.134L221.0132,347.43H245.26v72.64a2,2,0,0,0,2,2h17.48a2,2,0,0,0,2-2V347.43h24.417l13.4112,17.7085H274.2275a2,2,0,0,0,0,4h33.37l7.646,10.0962H274.2275a2,2,0,1,0,0,4h44.0457l18.1789,24.0042c.0311.0511.0547.105.0909.154l10.15,13.8584a1.9985,1.9985,0,0,0,1.6132.8184h39.78a2,2,0,0,0,2-2,15.8766,15.8766,0,0,0-15.8584-15.8584H357.9092L314.9075,347.43H430.4014a2,2,0,0,0,2-2V332.7952A11.2123,11.2123,0,0,0,421.2021,321.5959Zm-16.42-197.9086-12.6372,8.9882H120.3121l-12.9627-8.9882Zm4.2627,1.8768V321.5959H394.3135V136.0419Zm-306.09-.0563,14.7314,10.2147V321.5959H102.9551Zm88.6667,254.2886a2.0005,2.0005,0,0,0-.3567.4734l-18.19,24.1461a1.9786,1.9786,0,0,0-.7518.6136l-9.5517,13.04H126.1748a11.8775,11.8775,0,0,1,11.6895-9.8584h23.5146a2,2,0,0,0,0-4h-2.27l43.002-56.7813h13.8942ZM262.74,418.07H249.26V347.43h13.48Zm90.1514-13.8584h-1.82a2,2,0,0,0,0,4h23.1572a11.8777,11.8777,0,0,1,11.69,9.8584H349.3213l-8.686-11.8583h.0568L296.1748,347.43h13.7146Zm75.51-60.7813H83.5986V332.7952a7.2073,7.2073,0,0,1,7.1993-7.1993h28.0715a1.9617,1.9617,0,0,0,1.6343,0H369.3066a2,2,0,0,0,0-4h-247.62v-184.92h268.627v184.92h-2.2266a2,2,0,0,0,0,4h3.4094a1.9617,1.9617,0,0,0,1.6343,0h17.0972a1.9617,1.9617,0,0,0,1.6343,0h9.34a7.2073,7.2073,0,0,1,7.1993,7.1993Z"/><path d="M214.0127,254h-8.8174V194.1814a2,2,0,0,0-3.4141-1.4141L184.584,209.9646a2,2,0,0,0,2.8281,2.8281L201.1953,199.01V254h-8.8174a2,2,0,0,0,0,4h21.6348a2,2,0,0,0,0-4Z"/><path d="M326.002,254h-8.8174V194.1814a2,2,0,0,0-3.4141-1.4141l-17.1973,17.1973a2,2,0,0,0,2.8282,2.8281L313.1846,199.01V254h-8.8174a2,2,0,0,0,0,4H326.002a2,2,0,0,0,0-4Z"/><path d="M265.9033,225.5378H258v-7.9033a2,2,0,0,0-4,0v7.9033h-7.9033a2,2,0,0,0,0,4H254v7.9029a2,2,0,0,0,4,0v-7.9029h7.9033a2,2,0,0,0,0-4Z"/><path d="M249.26,100.6707a6.74,6.74,0,1,1,13.48,0v19.0162h4V100.6707a10.74,10.74,0,1,0-21.48,0v19.0162h4Z"/></g></svg>