<?xml version="1.0" ?><svg viewBox="0 0 512 512" xmlns="http://www.w3.org/2000/svg"><title/><g id="Books"><path d="M232.1914,162.1162a2,2,0,0,0,2,2h64.9014V270.9316a2,2,0,0,0,4,0V160.1162H234.1914A2,2,0,0,0,232.1914,162.1162Z"/><path d="M235.583,90.5347a25.4769,25.4769,0,0,0-25.4482,25.4477v44.1338h-85.14a14.3885,14.3885,0,0,0-14.3721,14.3726V186.064h-7.1162a8.7864,8.7864,0,0,0,0,17.5727h7.1162v12.0708h-7.1162a8.7862,8.7862,0,0,0,0,17.5723h7.1162v12.0708h-7.1162a8.7864,8.7864,0,0,0,0,17.5727h7.1162v12.0708h-7.1162a8.7862,8.7862,0,0,0,0,17.5723h7.1162v12.0708h-7.1162a8.7864,8.7864,0,0,0,0,17.5728h7.1162v10.1772h-7.1162a8.7862,8.7862,0,0,0,0,17.5723h7.1162v10.1772h-7.1162a8.7864,8.7864,0,0,0,0,17.5728h7.1162v29.3838c0,.1468.0176.2891.022.435-.0046.1457-.022.2882-.022.4351a13.5172,13.5172,0,0,0,13.502,13.5019H303.0928V354.2437H417.2793V90.5347ZM103.5068,199.6367a4.7864,4.7864,0,0,1,0-9.5727H122.668a4.7864,4.7864,0,0,1,0,9.5727Zm0,29.6431a4.7862,4.7862,0,0,1,0-9.5723H122.668a4.7862,4.7862,0,0,1,0,9.5723Zm0,29.6435a4.7864,4.7864,0,0,1,0-9.5727H122.668a4.7864,4.7864,0,0,1,0,9.5727Zm0,29.6431a4.7862,4.7862,0,0,1,0-9.5723H122.668a4.7862,4.7862,0,0,1,0,9.5723Zm0,29.6436a4.7864,4.7864,0,0,1,0-9.5728H122.668a4.7864,4.7864,0,0,1,0,9.5728Zm0,27.75a4.7862,4.7862,0,0,1,0-9.5723H122.668a4.7862,4.7862,0,0,1,0,9.5723Zm0,27.75a4.7864,4.7864,0,0,1,0-9.5728H122.668a4.7864,4.7864,0,0,1,0,9.5728Zm309.7725-23.4658H303.0928v-7.7081h91.2431a2,2,0,0,0,0-4H303.0928V310.6475H413.2793Zm0-43.5962H303.0928v-13a2,2,0,1,0-4,0V417.4653H124.9951a10.3765,10.3765,0,0,1-10.35-9.937,9.5059,9.5059,0,0,1,9.48-9.0669h159.55a2,2,0,0,0,0-4H124.125a13.4567,13.4567,0,0,0-9.502,3.9219V377.71h8.045a8.7864,8.7864,0,0,0,0-17.5728h-8.045V349.96h8.045a8.7862,8.7862,0,0,0,0-17.5723h-8.045V322.21h8.045a8.7864,8.7864,0,0,0,0-17.5728h-8.045V292.5664h8.045a8.7862,8.7862,0,0,0,0-17.5723h-8.045V262.9233h8.045a8.7864,8.7864,0,0,0,0-17.5727h-8.045V233.28h8.045a8.7862,8.7862,0,0,0,0-17.5723h-8.045V203.6367h8.045a8.7864,8.7864,0,0,0,0-17.5727h-8.045V174.4888a10.3845,10.3845,0,0,1,10.3721-10.3726h88.98a1.9949,1.9949,0,0,0,.1592-3.9839v-44.15A21.4725,21.4725,0,0,1,235.583,94.5347H413.2793Z"/><path d="M219.47,249.7142a26.3733,26.3733,0,0,0-12.58-16.06h.001a26.3747,26.3747,0,0,0-21.7011-1.8l-1.6524.5884.3672,1.7143a26.3788,26.3788,0,0,0,11.0525,16.3485,34.5461,34.5461,0,0,0-25.4627,44.1711l9.6416,30.4a17.4191,17.4191,0,0,0,24.9893,10.02,13.3722,13.3722,0,0,1,12.9033,0,17.4329,17.4329,0,0,0,24.9893-10.02,2,2,0,1,0-3.8125-1.209,13.4319,13.4319,0,0,1-19.2549,7.72,17.36,17.36,0,0,0-16.7471,0,13.4315,13.4315,0,0,1-19.2549-7.72l-9.6416-30.4a30.5262,30.5262,0,0,1,28.2273-39.7489,26.1537,26.1537,0,0,0,16.2961-.0255h.9034a30.543,30.543,0,0,1,29.1133,39.7744l-4.6231,14.5757a2,2,0,0,0,3.8125,1.209l4.6231-14.5757a34.5245,34.5245,0,0,0-32.19-44.9621Zm-20.6805-1.534a22.37,22.37,0,0,1-10.52-13.0991,22.3454,22.3454,0,0,1,27.1943,15.165A22.3689,22.3689,0,0,1,198.7891,248.18Z"/></g></svg>