<?xml version="1.0" ?><svg viewBox="0 0 512 512" xmlns="http://www.w3.org/2000/svg"><title/><g id="Women_s_day"><path d="M372.43,124.26V107.71a1.5,1.5,0,0,0-1.5-1.5h-45.5V99.26a16.75,16.75,0,1,0-33.49,0v6.95h-31.5V99.26a16.75,16.75,0,1,0-33.49,0v6.95H194.73V99.26a16.75,16.75,0,1,0-33.49,0v6.95H118.83a1.5,1.5,0,0,0-1.5,1.5V359.82a1.5,1.5,0,0,0,1.5,1.5h16.33v18h255.1V124.26Zm-77.49-25a13.75,13.75,0,1,1,27.49,0v6.95H294.94Zm.54,28h55.91v213h-213v-213h23.32a16.76,16.76,0,0,0,16.29,13v-3a13.77,13.77,0,0,1-13.2-10h62.61a16.77,16.77,0,0,0,16.3,13v-3a13.75,13.75,0,0,1-13.2-10h61.9a16.76,16.76,0,0,0,16.29,13v-3A13.77,13.77,0,0,1,295.48,127.26Zm-65.49-3c0-.26,0-.52,0-.78V109.21h62v14.27c0,.26,0,.52,0,.78Zm0-25a13.75,13.75,0,1,1,27.49,0v6.95H230Zm-3,25H164.28c0-.26,0-.52,0-.78V109.21H227v14.27C227,123.74,227,124,227,124.26Zm-62.75-25a13.75,13.75,0,1,1,27.49,0v6.95H164.24Zm-43.91,9.95h40.91v14.27c0,.26,0,.52,0,.78H136.87a1.5,1.5,0,0,0-1.5,1.5v216a1.5,1.5,0,0,0,1.5,1.5h216a1.5,1.5,0,0,0,1.5-1.5v-216a1.5,1.5,0,0,0-1.5-1.5H295c0-.26,0-.52,0-.78V109.21h74.49V358.32H120.33ZM387.26,376.36H138.16v-15H370.93a1.5,1.5,0,0,0,1.5-1.5V127.26h14.83Z"/><path d="M277.94,207.87a27.29,27.29,0,0,0-27.26-27.27h-11.6a27.27,27.27,0,0,0-8.5,53.17,27.26,27.26,0,0,0,8.5,53.16h11.6a27.26,27.26,0,0,0,8.5-53.16A27.31,27.31,0,0,0,277.94,207.87Zm-3,51.8a24.29,24.29,0,0,1-24.26,24.26h-11.6a24.27,24.27,0,0,1,0-48.53h11.6A24.29,24.29,0,0,1,274.94,259.67Zm-24.26-27.54h-11.6a24.27,24.27,0,0,1,0-48.53h11.6a24.27,24.27,0,0,1,0,48.53Z"/><path d="M360.15,420.72l8.76,8.77,2.12-2.12-8.71-8.72A12.16,12.16,0,0,1,360.15,420.72Z"/><path d="M345.28,401.61l-9.09-9.09-2.12,2.12,9.14,9.15A12.21,12.21,0,0,1,345.28,401.61Z"/><path d="M362.32,403.36l8.71-8.72-2.12-2.12-8.76,8.77A12.16,12.16,0,0,1,362.32,403.36Z"/><path d="M343.21,418.22l-9.14,9.15,2.12,2.12,9.09-9.09A12.21,12.21,0,0,1,343.21,418.22Z"/><path d="M417.21,324.22l-8.59-8.6-2.13,2.12,8.6,8.6A12.88,12.88,0,0,1,417.21,324.22Z"/><path d="M435.27,325.93l8.19-8.19-2.12-2.12-8.28,8.27A13,13,0,0,1,435.27,325.93Z"/><path d="M414.77,342.19l-8.28,8.27,2.13,2.13,8.18-8.19A12.9,12.9,0,0,1,414.77,342.19Z"/><path d="M433.5,344.74l7.84,7.85,2.12-2.13-7.84-7.84A13.28,13.28,0,0,1,433.5,344.74Z"/><path d="M96.79,118.65l8.72-8.71-2.13-2.12-8.76,8.77A12.1,12.1,0,0,1,96.79,118.65Z"/><path d="M79.75,116.91l-9.09-9.09-2.12,2.12,9.15,9.14A12.1,12.1,0,0,1,79.75,116.91Z"/><path d="M77.69,133.52l-9.15,9.14,2.12,2.12,9.09-9.09A12.1,12.1,0,0,1,77.69,133.52Z"/><path d="M94.62,136l8.76,8.76,2.13-2.12L96.79,134A12.16,12.16,0,0,1,94.62,136Z"/></g></svg>
