<?xml version="1.0" ?><svg viewBox="0 0 512 512" xmlns="http://www.w3.org/2000/svg"><title/><g id="Xylophone"><path d="M351.6963,337.34a13.2227,13.2227,0,1,0-13.2227,13.2227A13.2376,13.2376,0,0,0,351.6963,337.34Zm-22.4453,0a9.2227,9.2227,0,1,1,9.2226,9.2227A9.2333,9.2333,0,0,1,329.251,337.34Z"/><path d="M159.5078,337.34a13.2232,13.2232,0,1,0,13.2236-13.2226A13.2379,13.2379,0,0,0,159.5078,337.34Zm22.4463,0a9.2232,9.2232,0,1,1-9.2227-9.2226A9.2334,9.2334,0,0,1,181.9541,337.34Z"/><path d="M325.8057,278.08a13.2229,13.2229,0,1,0-13.2227-13.2232A13.2377,13.2377,0,0,0,325.8057,278.08Zm0-22.4458a9.2229,9.2229,0,1,1-9.2227,9.2226A9.2333,9.2333,0,0,1,325.8057,255.6338Z"/><path d="M185.3408,251.6338a13.2229,13.2229,0,1,0,13.2227,13.2226A13.2377,13.2377,0,0,0,185.3408,251.6338Zm0,22.4458a9.2229,9.2229,0,1,1,9.2227-9.2232A9.234,9.234,0,0,1,185.3408,274.08Z"/><path d="M312.9111,204.3818a13.2229,13.2229,0,1,0-13.2226-13.2231A13.2379,13.2379,0,0,0,312.9111,204.3818Zm0-22.4458a9.2229,9.2229,0,1,1-9.2226,9.2227A9.2336,9.2336,0,0,1,312.9111,181.936Z"/><path d="M198.2959,177.936a13.2229,13.2229,0,1,0,13.2227,13.2227A13.2377,13.2377,0,0,0,198.2959,177.936Zm0,22.4458a9.2229,9.2229,0,1,1,9.2227-9.2231A9.2338,9.2338,0,0,1,198.2959,200.3818Z"/><path d="M300.2852,104.2383a13.2229,13.2229,0,1,0,13.2226,13.2226A13.2376,13.2376,0,0,0,300.2852,104.2383Zm0,22.4458a9.2229,9.2229,0,1,1,9.2226-9.2232A9.2338,9.2338,0,0,1,300.2852,126.6841Z"/><path d="M211.001,104.2383a13.2229,13.2229,0,1,0,13.2226,13.2226A13.2376,13.2376,0,0,0,211.001,104.2383Zm0,22.4458a9.2229,9.2229,0,1,1,9.2226-9.2232A9.2338,9.2338,0,0,1,211.001,126.6841Z"/><path d="M398.3369,306.6719H346.44l-1.8862-11.147h33.6885a10.3716,10.3716,0,0,0,10.3594-10.36V244.5479a10.3716,10.3716,0,0,0-10.3594-10.36H334.1753l-2.0916-12.3609h19.1282a10.3715,10.3715,0,0,0,10.3594-10.36V170.85a10.3716,10.3716,0,0,0-10.3594-10.36H321.7051l-2.0916-12.3608H341.665a10.3716,10.3716,0,0,0,10.3594-10.36V97.1523a10.3715,10.3715,0,0,0-10.3594-10.36h-32.43l-3.824-22.5991a13.4609,13.4609,0,0,0-5.5449-8.8589,12.7769,12.7769,0,0,0-9.6846-2.146A13.5219,13.5219,0,0,0,279.51,68.8379l3.0381,17.9546H229.4521L232.49,68.8379a13.5219,13.5219,0,0,0-10.6718-15.6494,12.7716,12.7716,0,0,0-9.6846,2.146,13.4609,13.4609,0,0,0-5.5449,8.8589l-3.824,22.5991H180.78a10.3715,10.3715,0,0,0-10.3594,10.36V137.77a10.3716,10.3716,0,0,0,10.3594,10.36h11.6062L190.2949,160.49H160.7881a10.3716,10.3716,0,0,0-10.3594,10.36v40.6172a10.3715,10.3715,0,0,0,10.3594,10.36h19.1282l-2.0916,12.3609H133.7578a10.3716,10.3716,0,0,0-10.3594,10.36V285.165a10.3716,10.3716,0,0,0,10.3594,10.36h33.6885l-1.8862,11.147h-51.897a10.3715,10.3715,0,0,0-10.3594,10.36v40.6172a10.3716,10.3716,0,0,0,10.3594,10.36h41.5185l-3.9384,23.2759a13.757,13.757,0,0,0,3.0332,11.2055,12.9834,12.9834,0,0,0,9.9179,4.6494,13.2371,13.2371,0,0,0,12.9512-11.21l4.7244-27.9209h22.4856a2,2,0,0,0,0-4H113.6631a6.3666,6.3666,0,0,1-6.3594-6.36V317.0317a6.3666,6.3666,0,0,1,6.3594-6.36H225.05L194.1875,453.916l25.4277,5.479L251.658,310.6719H398.3369a6.3666,6.3666,0,0,1,6.3594,6.36v40.6172a6.3666,6.3666,0,0,1-6.3594,6.36H248.042a2,2,0,1,0,0,4H330.13l4.7244,27.9209a13.2371,13.2371,0,0,0,12.9512,11.21,12.9834,12.9834,0,0,0,9.9179-4.6494,13.757,13.757,0,0,0,3.0332-11.2055l-3.9384-23.2759h41.5185a10.3716,10.3716,0,0,0,10.3594-10.36V317.0317A10.3715,10.3715,0,0,0,398.3369,306.6719Zm-225.1348,88.59a9.25,9.25,0,0,1-9.0078,7.8779,8.99,8.99,0,0,1-6.8623-3.2309,9.7692,9.7692,0,0,1-2.1455-7.957l4.0513-23.9429h18.5757ZM330.1191,234.188H311.5437l-2.0916-12.3609h18.5755Zm-12.47-73.6978H299.0737l-2.0915-12.3608h18.5752ZM292.926,148.1294l2.0916,12.3608H216.9824l2.0915-12.3608Zm-9.4729-79.9585a9.51,9.51,0,0,1,7.4414-11.0469,8.8017,8.8017,0,0,1,6.6729,1.4844,9.4935,9.4935,0,0,1,3.9,6.252l3.7112,21.9321H286.604ZM210.5322,64.86a9.4935,9.4935,0,0,1,3.9-6.252,8.8017,8.8017,0,0,1,6.6729-1.4844,9.51,9.51,0,0,1,7.4414,11.0469L225.396,86.7925H206.821ZM174.4209,137.77V97.1523a6.3666,6.3666,0,0,1,6.3594-6.36H341.665a6.3666,6.3666,0,0,1,6.3594,6.36V137.77a6.3666,6.3666,0,0,1-6.3594,6.36H180.78A6.3666,6.3666,0,0,1,174.4209,137.77Zm22.0217,10.36h18.5751L212.9263,160.49H194.3511Zm-42.0139,63.3379V170.85a6.3667,6.3667,0,0,1,6.3594-6.36H351.2119a6.3667,6.3667,0,0,1,6.3594,6.36v40.6172a6.3666,6.3666,0,0,1-6.3594,6.36H284.6084a2,2,0,0,0,0,4H305.396l2.0915,12.3609H269.1006l13.3135-26.002a22.6636,22.6636,0,1,0-42.0069-9.0512l1.6018,32.8228-.4806,2.23H204.5125l2.0915-12.3609H232.05a2,2,0,0,0,0-4H160.7881A6.3666,6.3666,0,0,1,154.4287,211.4673ZM263.1,234.188l-17.1572-3.6968-1.543-31.6157-.0107-.1309a18.6633,18.6633,0,1,1,34.5576,7.4458L264.6068,234.188Zm-79.1271-12.3609h18.5754l-2.0916,12.3609H181.8811Zm-12.47,73.6978h18.5755l-1.8861,11.147H169.6163Zm20.7456,11.147,1.8862-11.147h26.3316a2,2,0,1,0,0-4h-86.708a6.3667,6.3667,0,0,1-6.3594-6.36V244.5479a6.3667,6.3667,0,0,1,6.3594-6.36H240.6666l-14.755,68.4839Zm24.2989,147.97L198.94,450.8486,244.759,238.188l.7947-3.6882v0l17.12,3.6885.4873.105v0Zm35.9729-147.97,14.7551-68.4839H378.2422a6.3667,6.3667,0,0,1,6.3594,6.36V285.165a6.3667,6.3667,0,0,1-6.3594,6.36H263.1816a2,2,0,0,0,0,4h54.6841l1.8863,11.147Zm71.2883,0-1.8862-11.147h18.5757l1.8862,11.147Zm33.0054,85.28a9.7692,9.7692,0,0,1-2.1455,7.957,8.99,8.99,0,0,1-6.8623,3.2309,9.25,9.25,0,0,1-9.0078-7.8774l-4.6114-27.2534h18.5757Z"/></g></svg>