<?xml version="1.0" ?><svg viewBox="0 0 512 512" xmlns="http://www.w3.org/2000/svg"><title/><g id="Lab_and_research"><path d="M423.49,131.54a63.09,63.09,0,0,0-80.83,29.91V114.08a46.64,46.64,0,0,0,59.64-33.4,2,2,0,0,0-1.17-2.32,46.64,46.64,0,0,0-60.46,23.56,46.68,46.68,0,0,0-60.48-23.56A2,2,0,0,0,279,80.68a46.57,46.57,0,0,0,59.64,33.4v48.37a63.12,63.12,0,0,0-76.11-32.84c-.78.25-1.56.52-2.33.8l-.52.19-1.33.51-1.05.43a2,2,0,0,0-1.17,2.32c.1.4.2.81.31,1.21s.23.84.35,1.26a63.07,63.07,0,0,0,81.85,42.11v22.24H294.11v8.16a8.4,8.4,0,0,0,8.39,8.39h6.11v188a32,32,0,1,0,64.1,0v-188h6.1a8.41,8.41,0,0,0,8.4-8.39v-8.16H342.66V178.61a63.11,63.11,0,0,0,82-44.75A2,2,0,0,0,423.49,131.54ZM363.15,83.66A42.54,42.54,0,0,1,398,81.41a42.66,42.66,0,0,1-54.43,28.76c-.12-.5-.25-1-.39-1.49s-.26-.84-.39-1.26A42.67,42.67,0,0,1,363.15,83.66Zm-58.7,23.74a42.72,42.72,0,0,1-21.1-26,42.67,42.67,0,0,1,55.21,26c-.29.91-.55,1.82-.79,2.75A42.51,42.51,0,0,1,304.45,107.4Zm-14.56,63.86a58.68,58.68,0,0,1-29.24-36l-.18-.65.63-.23.48-.18c.72-.26,1.45-.51,2.19-.74a59.07,59.07,0,0,1,74.55,39.19c-.17.62-.34,1.23-.5,1.86A59,59,0,0,1,289.89,171.26Zm93.32,33.42v4.16a4.4,4.4,0,0,1-4.4,4.39h-10.1v192a28.05,28.05,0,1,1-56.1,0v-192H302.5a4.4,4.4,0,0,1-4.39-4.39v-4.16h40.55V277H324.1a2,2,0,0,0-2,2V405.24a18.56,18.56,0,0,0,37.12,0V279a2,2,0,0,0-2-2H342.66V204.68ZM342.66,363V281h12.56V405.24a14.56,14.56,0,0,1-29.12,0V281h12.56v82Zm48.26-191.74A59,59,0,0,1,343,174.48c-.11-.42-.23-.83-.34-1.25v-1.15a59.1,59.1,0,0,1,77.69-37.5A59.22,59.22,0,0,1,390.92,171.26Z"/><path d="M185.28,373.77l-.18-.25a12,12,0,0,0-9.41-4.92,12.33,12.33,0,0,0-9.95,4.57,40.35,40.35,0,0,1-15.8,11.66,12.38,12.38,0,0,0-7.3,8.16,12,12,0,0,0,1.92,10.45l.18.24a12.19,12.19,0,0,0,9.78,5,11.83,11.83,0,0,0,2.51-.27,44.27,44.27,0,0,0,29.13-21.49A12.1,12.1,0,0,0,185.28,373.77Zm-2.61,11.17a40.24,40.24,0,0,1-26.48,19.54,8.13,8.13,0,0,1-8.23-3.17l-.18-.25a8,8,0,0,1-1.29-7,8.42,8.42,0,0,1,5-5.54,44.32,44.32,0,0,0,17.36-12.81,8.44,8.44,0,0,1,6.54-3.12h.22a8,8,0,0,1,6.3,3.3l.19.24A8.14,8.14,0,0,1,182.67,384.94Z"/><path d="M218.08,380.41a40.43,40.43,0,0,1-19.35,3.31,12.4,12.4,0,0,0-10.19,4,12,12,0,0,0-3,10.19l.05.31a12.13,12.13,0,0,0,8.87,9.73,44.29,44.29,0,0,0,35.67-6.11,12.13,12.13,0,0,0,5.13-12.12l-.06-.3A12,12,0,0,0,229,380.8,12.43,12.43,0,0,0,218.08,380.41Zm13.2,9.69.05.3a8.1,8.1,0,0,1-3.41,8.13,40.23,40.23,0,0,1-32.44,5.55,8.1,8.1,0,0,1-5.92-6.53l-.06-.3a8.09,8.09,0,0,1,2-6.83,8.39,8.39,0,0,1,6.24-2.74l.69,0a44.52,44.52,0,0,0,21.27-3.64,8.43,8.43,0,0,1,7.43.25A8.06,8.06,0,0,1,231.28,390.1Z"/><path d="M152.31,340.73a7.92,7.92,0,1,0-7.92-7.92A7.92,7.92,0,0,0,152.31,340.73Zm0-11.83a3.92,3.92,0,1,1-3.92,3.91A3.92,3.92,0,0,1,152.31,328.9Z"/><path d="M197.58,315.87a7.92,7.92,0,1,0-7.92-7.92A7.93,7.93,0,0,0,197.58,315.87Zm0-11.84a3.92,3.92,0,1,1-3.92,3.92A3.92,3.92,0,0,1,197.58,304Z"/><path d="M198.85,353.73a7.92,7.92,0,1,0,7.92-7.91A7.93,7.93,0,0,0,198.85,353.73Zm7.92-3.91a3.92,3.92,0,1,1-3.92,3.91A3.92,3.92,0,0,1,206.77,349.82Z"/><path d="M87.28,230.47a8.39,8.39,0,0,0,8.39,8.39h2V400.21a36.24,36.24,0,0,0,36.2,36.2H226a36.24,36.24,0,0,0,36.2-36.2V238.86h2a8.4,8.4,0,0,0,8.39-8.39v-8.15H87.28ZM258.15,341.65H243.87v-24h14.28Zm-18.28,4v54.57A13.94,13.94,0,0,1,226,414.14H133.86A13.93,13.93,0,0,1,120,400.22V287.45H239.87v26.2h-11.3v4h11.3v24h-11.3v4Zm18.28-32H243.87V287.37h14.28ZM91.28,226.32H268.54v4.15a4.4,4.4,0,0,1-4.39,4.39h-6v21.42H228.57v4h29.58v23.09H228.57v.08H118a2,2,0,0,0-2,2V400.22a17.93,17.93,0,0,0,17.91,17.92H226a17.94,17.94,0,0,0,17.92-17.92V345.65h14.28v54.56a32.24,32.24,0,0,1-32.2,32.2H133.87a32.23,32.23,0,0,1-32.2-32.2V234.86h-6a4.4,4.4,0,0,1-4.39-4.39Z"/></g></svg>