<?xml version="1.0" ?><svg viewBox="0 0 512 512" xmlns="http://www.w3.org/2000/svg"><title/><g id="Snack"><path d="M450.1716,139.7778a26.7889,26.7889,0,0,0-16.5962-24.7456,26.7457,26.7457,0,1,0-34.97-34.7094,26.7468,26.7468,0,0,0-49.79.3769,26.7471,26.7471,0,0,0-49.9385,0,26.7462,26.7462,0,0,0-49.7144-.562,26.7454,26.7454,0,1,0-35.54,34.6186,26.747,26.747,0,0,0-.707,49.7627A26.7271,26.7271,0,0,0,199.4348,176.75a2,2,0,1,0,3.5332,1.875,22.7183,22.7183,0,0,1,20.107-12.1016c.4155,0,.8276.0127,1.2368.0342l2.1054.0366v-4.2168l-2.1054.1114c-.4092.0215-.8213.0346-1.2368.0346a22.7456,22.7456,0,0,1,0-45.4912c.4145,0,.8261.0127,1.2348.0347l2.1074.0757v-4.11h-2a22.7454,22.7454,0,1,1,22.7456-22.7451h4a22.7454,22.7454,0,1,1,45.4908,0v2h4.4477v-2a22.7454,22.7454,0,1,1,45.4907,0v2h4.4473v-2a22.7456,22.7456,0,0,1,45.4912,0v2h4.15v-2a22.7454,22.7454,0,1,1,22.7456,22.7451v4a22.7456,22.7456,0,0,1,0,45.4912v4a22.7454,22.7454,0,0,1,0,45.4908v4a22.7454,22.7454,0,0,1,0,45.4907v4a22.7454,22.7454,0,0,1,0,45.4907v4a22.7454,22.7454,0,1,1-22.7456,22.7451v-2h-4.15v2a22.7456,22.7456,0,0,1-45.4912,0v-2H346.592v2A22.7315,22.7315,0,0,1,314.6349,358.53l-1.3217,3.7783a26.7038,26.7038,0,0,0,35.5025-14.98,26.7469,26.7469,0,0,0,49.79.377,26.7457,26.7457,0,1,0,34.97-34.7095,26.7461,26.7461,0,0,0,0-49.4907,26.7461,26.7461,0,0,0,0-49.4907,26.7461,26.7461,0,0,0,0-49.4908A26.7887,26.7887,0,0,0,450.1716,139.7778Z"/><path d="M192.86,448.4585c-72.251,0-131.0317-58.7808-131.0317-131.0317a131.1065,131.1065,0,0,1,5.5835-37.9312,2,2,0,0,1,3.4633-.6875,22.3917,22.3917,0,0,0,39.4561-17.7349,2,2,0,0,1,2.7075-2.1826,37.9775,37.9775,0,0,0,39.7954-63.1352,2,2,0,0,1,.7637-3.3726,131.02,131.02,0,0,1,39.2622-5.9883c72.2515,0,131.0322,58.7808,131.0322,131.0323a131.5748,131.5748,0,0,1-3.8672,31.7246,2,2,0,1,1-3.8818-.9659,127.13,127.13,0,0,0-158.18-152.9345,41.9915,41.9915,0,0,1-43.3574,68.4253,26.3971,26.3971,0,0,1-44.3276,20.3315A127.0624,127.0624,0,0,0,308.4324,370.23a2,2,0,0,1,3.6377,1.6645A131.437,131.437,0,0,1,192.86,448.4585Z"/><path d="M247.8206,121.7563a2,2,0,0,1-2-2V110.894a2,2,0,0,1,4,0v8.8623A2,2,0,0,1,247.8206,121.7563Z"/><path d="M299.1013,121.7563a2,2,0,0,1-2-2V110.894a2,2,0,0,1,4,0v8.8623A2,2,0,0,1,299.1013,121.7563Z"/><path d="M348.592,121.7563a2,2,0,0,1-2-2V110.894a2,2,0,0,1,4,0v8.8623A2,2,0,0,1,348.592,121.7563Z"/><path d="M398.6809,121.7563a2,2,0,0,1-2-2V110.894a2,2,0,0,1,4,0v8.8623A2,2,0,0,1,398.6809,121.7563Z"/><path d="M247.8206,170.9541a2,2,0,0,1-2-2v-8.8618a2,2,0,0,1,4,0v8.8618A2,2,0,0,1,247.8206,170.9541Z"/><path d="M299.1013,170.9541a2,2,0,0,1-2-2v-8.8618a2,2,0,1,1,4,0v8.8618A2,2,0,0,1,299.1013,170.9541Z"/><path d="M348.592,170.9541a2,2,0,0,1-2-2v-8.8618a2,2,0,0,1,4,0v8.8618A2,2,0,0,1,348.592,170.9541Z"/><path d="M398.6809,170.9541a2,2,0,0,1-2-2v-8.8618a2,2,0,1,1,4,0v8.8618A2,2,0,0,1,398.6809,170.9541Z"/><path d="M299.1013,220.4448a2,2,0,0,1-2-2V209.583a2,2,0,0,1,4,0v8.8618A2,2,0,0,1,299.1013,220.4448Z"/><path d="M348.592,220.4448a2,2,0,0,1-2-2V209.583a2,2,0,1,1,4,0v8.8618A2,2,0,0,1,348.592,220.4448Z"/><path d="M398.6809,220.4448a2,2,0,0,1-2-2V209.583a2,2,0,0,1,4,0v8.8618A2,2,0,0,1,398.6809,220.4448Z"/><path d="M348.592,267.9282a2,2,0,0,1-2-2v-8.8618a2,2,0,0,1,4,0v8.8618A2,2,0,0,1,348.592,267.9282Z"/><path d="M398.6809,267.9282a2,2,0,0,1-2-2v-8.8618a2,2,0,0,1,4,0v8.8618A2,2,0,0,1,398.6809,267.9282Z"/><path d="M348.592,319.4268a2,2,0,0,1-2-2v-8.8623a2,2,0,0,1,4,0v8.8623A2,2,0,0,1,348.592,319.4268Z"/><path d="M398.6809,319.4268a2,2,0,0,1-2-2v-8.8623a2,2,0,0,1,4,0v8.8623A2,2,0,0,1,398.6809,319.4268Z"/><path d="M188.238,405.8594a16.4414,16.4414,0,1,1,16.4414-16.4414A16.46,16.46,0,0,1,188.238,405.8594Zm0-28.8828a12.4414,12.4414,0,1,0,12.4414,12.4414A12.4553,12.4553,0,0,0,188.238,376.9766Z"/><path d="M249.1628,354.1826a22.3145,22.3145,0,1,1,22.3145-22.3144A22.34,22.34,0,0,1,249.1628,354.1826Zm0-40.6289a18.3145,18.3145,0,1,0,18.3145,18.3145A18.2468,18.2468,0,0,0,249.1628,313.5537Z"/><path d="M223.075,279.9463a16.4417,16.4417,0,1,1,16.4418-16.4414A16.46,16.46,0,0,1,223.075,279.9463Zm0-28.8833a12.4417,12.4417,0,1,0,12.4418,12.4419A12.4558,12.4558,0,0,0,223.075,251.063Z"/><path d="M136.2864,348.31a16.4414,16.4414,0,1,1,16.4419-16.4414A16.46,16.46,0,0,1,136.2864,348.31Zm0-28.8828a12.4414,12.4414,0,1,0,12.4419,12.4414A12.4552,12.4552,0,0,0,136.2864,319.4268Z"/></g></svg>